<svg width="353" height="554" viewBox="0 0 353 554" fill="none" xmlns="http://www.w3.org/2000/svg">
<path d="M347.456 209.5C328.057 131.56 259.99 74 179 74C82.9025 74 5 155.036 5 255C5 335.93 56.0613 404.455 126.5 427.615" stroke="white" stroke-width="10"/>
<path d="M144.76 320.156C145.346 320.547 146.908 321.23 149.447 322.207C152.084 323.184 155.551 324.16 159.848 325.137C164.145 326.016 168.881 326.455 174.057 326.455C184.213 326.455 192.807 324.307 199.838 320.01C206.869 315.713 210.385 309.756 210.385 302.139C210.385 297.549 208.822 293.691 205.697 290.566C202.67 287.441 198.764 284.854 193.979 282.803C189.291 280.654 182.455 277.969 173.471 274.746C160.287 270.156 149.398 265.615 140.805 261.123C132.211 256.631 124.74 250.137 118.393 241.641C112.143 233.145 109.018 222.109 109.018 208.535C109.018 195.156 112.289 183.682 118.832 174.111C125.473 164.443 134.555 157.168 146.078 152.285C157.602 147.402 170.639 144.961 185.189 144.961C195.15 144.961 205.014 145.84 214.779 147.598C224.643 149.355 232.748 151.211 239.096 153.164C245.541 155.02 249.594 156.289 251.254 156.973L249.643 211.465H222.104L214.633 185.977C213.852 185.781 212.143 185.342 209.506 184.658C206.869 183.975 203.598 183.291 199.691 182.607C195.785 181.826 191.977 181.436 188.266 181.436C178.109 181.436 170.248 183.438 164.682 187.441C159.115 191.445 156.332 196.572 156.332 202.822C156.332 209.268 159.311 214.346 165.268 218.057C171.322 221.67 180.844 225.771 193.832 230.361C207.016 234.951 217.855 239.443 226.352 243.838C234.945 248.232 242.27 254.531 248.324 262.734C254.477 270.938 257.553 281.436 257.553 294.229C257.553 308.877 254.037 321.475 247.006 332.021C239.975 342.471 230.355 350.43 218.148 355.898C205.941 361.27 192.074 363.955 176.547 363.955C166.586 363.955 156.625 363.076 146.664 361.318C136.801 359.658 128.598 357.949 122.055 356.191C115.512 354.336 111.361 353.115 109.604 352.529V294.961H140.219L144.76 320.156Z" fill="white"/>
<path d="M309 198.5C283 139.5 250.361 108 182 108C100.814 108 35 173.59 35 254.5C35 335.41 100.814 401 182 401C201.833 401 220.748 397.086 238.011 389.99" stroke="white" stroke-width="25"/>
<path d="M187.012 22.7525L149.88 134.025L227.843 132.722L187.012 22.7525Z" fill="#1C1C1E"/>
<path d="M174.391 477.392L144.653 370.527L207.685 371.581L174.391 477.392Z" fill="#1C1C1E"/>
<path d="M187.5 30L214.78 141H160.22L187.5 30Z" fill="white"/>
<path d="M84.8364 251.145L44.4524 260.329L44.5535 241.527L84.8364 251.145Z" fill="white"/>
<path d="M175.384 441.441L153.726 369.812L199.424 370.576L175.384 441.441Z" fill="white"/>
</svg>
